<?xml version="1.0" encoding="UTF-8"?>
<svg xmlns="http://www.w3.org/2000/svg" width="650" height="112" viewBox="0 0 650 112" fill="none">
  <path d="M27.3334 48.9334C15.7334 75.6 4.80002 100.533 3.06669 104.4C0.533356 110.267 0.266689 111.467 2.00002 111.067C3.33336 110.8 7.60002 102.8 12.6667 91.3334L21.2 72H50.1334H79.0667L87.7334 91.6C92.6667 102.933 97.0667 111.333 98.1334 111.333C100.4 111.333 102.133 115.6 76.2667 56.6667C49.8667 -3.73332 51.8667 0.666685 50 0.666685C49.2 0.666685 38.9334 22.4 27.3334 48.9334ZM63.8667 37.0667C71.0667 53.7334 76.6667 67.6 76.2667 68C75.3334 68.9334 24.6667 68.9334 23.7334 68C23.3334 67.6 29.0667 53.4667 36.4 36.6667C43.8667 19.8667 50 6.26669 50.2667 6.53335C50.5334 6.80002 56.6667 20.5334 63.8667 37.0667Z" fill="black"></path>
  <path d="M104 56C104 92 104.4 111.333 105.333 111.333C106.133 111.333 106.667 93.0667 106.667 59.2V7.0667L148.133 58.8C170.933 87.3334 190.4 110.8 191.467 111.067C193.067 111.467 193.333 103.2 193.333 56.1334C193.333 20.4 192.8 0.666702 192 0.666702C191.2 0.666702 190.533 19.6 190.4 52.9334L190 105.333L148.133 52.9334C125.067 24.2667 105.6 0.666702 105.067 0.666702C104.533 0.666702 104 25.6 104 56Z" fill="black"></path>
  <path d="M202.667 55.8667V111.333H222.4C233.333 111.333 245.733 110.667 250 109.867C277.067 104.933 292 83.2 290.267 51.3334C289.2 28.6667 280.667 14.4 262.933 5.73337L254 1.33337L228.4 0.933368L202.667 0.400035V55.8667ZM248.667 4.80004C264 7.60004 277.067 17.6 282.8 30.8C293.333 55.4667 285.733 88 266.8 99.8667C256.933 106 250.267 107.333 227.733 107.333H206.667V55.3334V3.33337H223.733C233.2 3.33337 244.4 4.00004 248.667 4.80004Z" fill="black"></path>
  <path d="M284 2.00003C284 2.80004 292 3.33337 305.333 3.33337H326.667V57.3334C326.667 92 327.2 111.333 328 111.333C328.8 111.333 329.467 91.8667 329.6 57.7334L330 4.00004L351.067 3.60004C363.467 3.4667 372 2.80004 372 2.00003C372 1.20003 355.733 0.666702 328 0.666702C299.6 0.666702 284 1.20003 284 2.00003Z" fill="black"></path>
  <path d="M378.667 56C378.667 104.267 378.933 111.333 380.667 111.333C382.4 111.333 382.667 107.467 382.667 84V56.6667H420.667H458.667V84C458.667 107.467 458.933 111.333 460.667 111.333C462.4 111.333 462.667 104.267 462.667 56C462.667 7.73337 462.4 0.666702 460.667 0.666702C458.933 0.666702 458.667 4.40004 458.667 26.6667V52.6667H420.667H382.667V26.6667C382.667 4.40004 382.4 0.666702 380.667 0.666702C378.933 0.666702 378.667 7.73337 378.667 56Z" fill="black"></path>
  <path d="M478.667 56V111.333H514.667C545.733 111.333 550.667 111.067 550.667 109.333C550.667 107.6 545.867 107.333 516 107.333H481.333V82V56.6667H511.333C537.067 56.6667 541.333 56.4 541.333 54.6667C541.333 52.9334 537.067 52.6667 511.333 52.6667H481.333V28V3.33337H515.333C537.067 3.33337 549.333 2.80004 549.333 2.00003C549.333 1.20003 536.667 0.666702 514 0.666702H478.667V56Z" fill="black"></path>
  <path d="M558.667 56C558.667 104.133 558.933 111.333 560.667 111.333C562.4 111.333 562.667 104.4 562.933 59.8667L563.333 8.53337L604.667 59.8667C627.333 88.2667 646.667 111.333 647.6 111.333C648.933 111.333 649.333 100.133 649.333 56C649.333 20 648.933 0.666702 648 0.666702C647.2 0.666702 646.667 18.9334 646.667 52.6667C646.667 81.2 646.267 104.667 645.733 104.533C645.067 104.533 626.133 81.2 603.333 52.6667C580.667 24 561.2 0.666702 560.4 0.666702C559.067 0.666702 558.667 12.6667 558.667 56Z" fill="black"></path>
</svg>
